<?xml version="1.0" encoding="utf-8"?>
<!-- Generator: Adobe Illustrator 22.1.0, SVG Export Plug-In . SVG Version: 6.00 Build 0)  -->
<svg version="1.1" id="Layer_1" xmlns="http://www.w3.org/2000/svg" xmlns:xlink="http://www.w3.org/1999/xlink" x="0px" y="0px"
	 viewBox="0 0 20 20" style="enable-background:new 0 0 20 20;" xml:space="preserve">
<style type="text/css">
	.st0{clip-path:url(#SVGID_2_);}
	.st1{clip-path:url(#SVGID_4_);}
</style>
<g>
	<defs>
		<path id="SVGID_1_" d="M9.5,8.4c0.3,0.3,0.7,0.4,1.2,0.4s0.8-0.2,1.1-0.5c0.3-0.3,0.5-0.7,0.5-1.1c0-0.5-0.2-0.8-0.5-1.1
			c-0.3-0.3-0.7-0.5-1.1-0.5S9.8,5.8,9.5,6.1C9.2,6.4,9,6.8,9,7.3C9,7.7,9.2,8.1,9.5,8.4z M9.1,5.7c0.4-0.4,0.9-0.6,1.5-0.6
			s1.1,0.2,1.5,0.6c0.4,0.4,0.6,0.9,0.6,1.5s-0.2,1.1-0.6,1.5c-0.4,0.4-0.9,0.6-1.5,0.6S9.5,9.3,9.1,8.8C8.7,8.4,8.5,7.9,8.5,7.3
			S8.7,6.2,9.1,5.7z M7.2,3.8c1-1,2.1-1.4,3.5-1.4s2.5,0.5,3.5,1.4c1,1,1.4,2.1,1.4,3.5c0,1.1-0.4,2.6-1.2,4.3s-1.6,3.2-2.5,4.3
			l-1.2,1.7c-0.4-0.5-0.8-1.1-1.4-1.9c-0.5-0.8-1.3-2.1-2.2-4S5.7,8.4,5.7,7.3C5.7,5.9,6.2,4.8,7.2,3.8z M13.8,4.2
			c-0.8-0.8-1.9-1.3-3.1-1.3S8.4,3.3,7.5,4.2C6.7,5,6.3,6.1,6.3,7.3c0,1.5,0.8,3.6,2.4,6.4c0.8,1.3,1.4,2.3,2,3.1
			c0.6-0.8,1.2-1.8,2-3.1c1.6-2.7,2.4-4.8,2.4-6.4C15,6.1,14.6,5,13.8,4.2z"/>
	</defs>
	<use xlink:href="#SVGID_1_"  style="overflow:visible;"/>
	<clipPath id="SVGID_2_">
		<use xlink:href="#SVGID_1_"  style="overflow:visible;"/>
	</clipPath>
	<g class="st0">
		<defs>
			<rect id="SVGID_3_" x="-648.1" y="-1898.7" width="1006.9" height="2097"/>
		</defs>
		<use xlink:href="#SVGID_3_"  style="overflow:visible;"/>
		<clipPath id="SVGID_4_">
			<use xlink:href="#SVGID_3_"  style="overflow:visible;"/>
		</clipPath>
		<rect x="2.2" y="-1.1" class="st1" width="16.8" height="22.3"/>
	</g>
</g>
</svg>
