<?xml version="1.0" encoding="utf-8"?>
<!-- Generator: Adobe Illustrator 23.0.3, SVG Export Plug-In . SVG Version: 6.00 Build 0)  -->
<svg version="1.1" id="Layer_1" xmlns="http://www.w3.org/2000/svg" xmlns:xlink="http://www.w3.org/1999/xlink" x="0px" y="0px"
	 viewBox="0 0 20 20" style="enable-background:new 0 0 20 20;" xml:space="preserve">
<path d="M13.9,12.3l5.1,5.1L17.4,19l-5.1-5.1V13L12,12.8c-0.6,0.5-1.2,0.9-2,1.2c-0.7,0.3-1.5,0.4-2.3,0.4c-1.2,0-2.3-0.3-3.4-0.9
	s-1.8-1.4-2.4-2.4C1.3,10,1,8.9,1,7.7s0.3-2.3,0.9-3.4c0.6-1,1.4-1.8,2.4-2.4S6.5,1,7.7,1c1.2,0,2.3,0.3,3.4,0.9
	c1,0.6,1.8,1.4,2.4,2.4c0.6,1,0.9,2.1,0.9,3.4c0,0.8-0.1,1.6-0.4,2.4c-0.3,0.7-0.7,1.4-1.2,2l0.3,0.3H13.9z M7.7,12.3
	c0.8,0,1.6-0.2,2.3-0.6c0.7-0.4,1.3-1,1.7-1.7c0.4-0.7,0.6-1.5,0.6-2.3c0-0.8-0.2-1.6-0.6-2.3c-0.4-0.7-1-1.3-1.7-1.7
	S8.6,3.1,7.7,3.1c-0.8,0-1.6,0.2-2.3,0.6s-1.3,1-1.7,1.7C3.3,6.1,3.1,6.9,3.1,7.7c0,0.8,0.2,1.6,0.6,2.3c0.4,0.7,1,1.3,1.7,1.7
	C6.1,12.1,6.9,12.3,7.7,12.3z"/>
</svg>
